-
      the fast  and The Hottest Private Tracker on the net

Please Seed back to make the speed Faster!!
 ............ NFO .............
-                                                                                                     
       
     
     
       
       
     
     
                                         
                                         
                EXVID                    
                                         
         
                                         
         Filled the Archives             
                                         
         
                                         
                With:                    
                                         
         
                                         
                                    
     E240                           
                                    
     SP               (C) 2009      
                                         
     
     
     
                                                                                  
                                                                                   
             Red.River.1948.Theatrical.Cut.BDRip.XviD-EXViD                         
                                                                                   
                                                                                  
     
                                                                                               
EXViD aims to iNTERNAL those releases which have been lost in the archives.
EXViD aims to PRE non-internal releases which have poor sources and are likely skipped by others. 
http://www.imdb.com/title/tt0040724/
Subtitles: None
Date: 2013.03

Directors: Howard Hawks, Arthur Rosson

Genre: Action | Adventure | Romance | Western

Plot:
Tom Dunson builds a cattle empire with his adopted son Matthew Garth. Together they begin
a massive cattle drive north from Texas to the Missouri railhead. But on the way, new
information and Dunson's tyrannical ways cause Matthew to take the herd away from Dunson
and head to a new railhead in Kansas. Dunson, swearing vengeance, pursues.

Cast:
John Wayne	 ...	Thomas Dunson
Montgomery Clift	 ...	Matt Garth
Joanne Dru	 ...	Tess Millay
Walter Brennan	 ...	Nadine Groot
Coleen Gray	 ...	Fen (as Colleen Gray)
Harry Carey	 ...	Mr. Melville (as Harry Carey Sr.)
John Ireland	 ...	Cherry Valance
Noah Beery Jr.	 ...	Buster McGee
Harry Carey Jr.	 ...	Dan Latimer
Chief Yowlachie	 ...	Quo (as Chief Yowlatchie)
Paul Fix	 ...	Teeler Yacey
Hank Worden	 ...	Simms Reeves
Mickey Kuhn	 ...	Matt - as a Boy
Ray Hyke	 ...	Walt Jergens
Hal Taliaferro	 ...	Old Leather

Stats:
Format                           : AVI
Format/Info                      : Audio Video Interleave
File size                        : 1.37 GiB
Duration                         : 2h 6mn
Overall bit rate                 : 1 543 Kbps
Writing application              : Nandub v1.0rc2
Writing library                  : Nandub build 1852/release

Video
ID                               : 0
Format                           : MPEG-4 Visual
Format profile                   : Advanced Simple@L5
Format settings, BVOP            : 2
Format settings, QPel            : No
Format settings, GMC             : No warppoints
Format settings, Matrix          : Default (H.263)
Codec ID                         : XVID
Codec ID/Hint                    : XviD
Duration                         : 2h 6mn
Bit rate                         : 1 459 Kbps
Width                            : 512 pixels
Height                           : 384 pixels
Display aspect ratio             : 4:3
Frame rate                       : 23.976 fps
Color space                      : YUV
Chroma subsampling               : 4:2:0
Bit depth                        : 8 bits
Scan type                        : Progressive
Compression mode                 : Lossy
Bits/(Pixel*Frame)               : 0.310
Stream size                      : 1.29 GiB (95%)
Writing library                  : XviD 64

Audio
ID                               : 1
Format                           : MPEG Audio
Format version                   : Version 1
Format profile                   : Layer 3
Codec ID                         : 55
Codec ID/Hint                    : MP3
Duration                         : 2h 6mn
Bit rate mode                    : Variable
Bit rate                         : 71.2 Kbps
Nominal bit rate                 : 80.0 Kbps
Channel(s)                       : 1 channel
Sampling rate                    : 48.0 KHz
Compression mode                 : Lossy
Stream size                      : 64.6 MiB (5%)
Alignment                        : Aligned on interleaves
Interleave, duration             : 24 ms (0.58 video frame)
Interleave, preload duration     : 248 ms
Writing library                  : LAME3.98r
Encoding settings                : -m m -V 4 -q 3 -lowpass 20.3 --abr 80




Release notes:
This is the shorter theatrical cut which is said to be Hawk's preferred version. DVD releases
only contained the longer preview cut.

Looking for:
75TB+ Archives
DUTCH/FLEMiSH Archives
                                                                                                    
Greets: CRBS EPiSODE FiCO FLS iLS KLASSiGER LiPSYNC MADE NODLABS RUNNER SPRiNTER      
   

                                                                    ASCII DONE BY XX^NFO 2oo9